PathFileType	4	(X/Y/Z)	40_1_53_p1_0-275.trc
DataRate	CameraRate	NumFrames	NumMarkers	Units	OrigDataRate	OrigDataStartFrame	OrigNumFrames
60.0	60.0	5	27	m	60.0	138	276
Frame#	Time	RHip			RKnee			RAnkle			RBigToe			RSmallToe			RHeel			LHip			LKnee			LAnkle			LBigToe			LSmallToe			LHeel			Neck			Head			Nose			RShoulder			RElbow			RWrist			RThumb			RIndex			RPinky			LShoulder			LElbow			LWrist			LThumb			LIndex			LPinky			
		X1	Y1	Z1	X2	Y2	Z2	X3	Y3	Z3	X4	Y4	Z4	X5	Y5	Z5	X6	Y6	Z6	X7	Y7	Z7	X8	Y8	Z8	X9	Y9	Z9	X10	Y10	Z10	X11	Y11	Z11	X12	Y12	Z12	X13	Y13	Z13	X14	Y14	Z14	X15	Y15	Z15	X16	Y16	Z16	X17	Y17	Z17	X18	Y18	Z18	X19	Y19	Z19	X20	Y20	Z20	X21	Y21	Z21	X22	Y22	Z22	X23	Y23	Z23	X24	Y24	Z24	X25	Y25	Z25	X26	Y26	Z26	X27	Y27	Z27	
138	2.3	0.3399218110795829	0.5899941956328241	0.8274345199664195	0.33031890519662527	0.7450082446453622	1.2807365471187144	0.315314503122166	0.848669690128479	1.6624460893627402	0.30684612528173816	0.7382981637727051	1.7297582467916026	0.36749173058508205	0.7499625063874038	1.7270235513115988	0.27383850773520385	0.9376487493659632	1.719438003248314	0.15041864157699653	0.5702308558817194	0.8329958189322113	0.11217868557117405	0.7288026921891277	1.2554026715239537	0.09352871582624145	0.873229369547649	1.6591534656758424	0.138872703250579	0.7021432390405975	1.7115009801232905	0.08285233721068859	0.7224957812357656	1.7100867664875896	0.08957686838226692	0.9572982524137104	1.7406796379567808	0.26267453597952395	0.4539391870747406	0.3370186536927862	0.2811398246443015	0.2910965111758082	0.11762881297707388	0.28686300627263933	0.2817213070275735	0.25599667068903065	0.39474079914919563	0.49979850181370844	0.4106188432795958	0.425646460826308	0.547762979349553	0.7014605299070185	0.3239482643124274	0.4746307588134691	0.9067315273778763	0.2573140313181697	0.46874505937332234	0.9901948170064456	0.2539919539884049	0.46910022076167734	0.9916312023446185	0.25426623280828586	0.4839427367578955	0.9981868059615011	0.11966660767236685	0.43490189178785493	0.4031771162641903	0.0949537679190753	0.4901362724740378	0.6869337746232066	0.20227011721840818	0.4211271219301701	0.8972712321617878	0.28619218832573656	0.429554308393777	0.9611415957166892	0.2855702426469141	0.4337217489657933	0.9841857434450993	0.24190118267625269	0.47040175956956914	1.0021135259500655
139	2.316666666666667	0.3393827672607148	0.5877894332856578	0.823329683998708	0.3303102078445878	0.7453544224811414	1.280737773301148	0.3152758561817605	0.8485967345926522	1.6624427127770847	0.30691310333925836	0.7383624652222187	1.729644240999568	0.3676690915625868	0.7502362089331492	1.7269858874282897	0.2726644036167861	0.938513276190943	1.7250433106398875	0.1500447511088206	0.5678608006604935	0.8286200650596984	0.11272013251524564	0.7315172872704696	1.2605311684183025	0.0923810628826791	0.8743287758000604	1.6639062146050205	0.13889416261556636	0.7021570101609441	1.7114480367478753	0.08287302349123991	0.7224714500032994	1.7100282970075538	0.08546565438698105	0.9532393981129724	1.7397354455611367	0.2628281510085004	0.4535796589154635	0.33352969793987497	0.28092428035336603	0.2909206615392914	0.11416437500711234	0.2869448074553341	0.2815752074094306	0.25563381746279895	0.39485876476555143	0.4995482113739103	0.4070033140364478	0.42573440588359296	0.5478530136071936	0.701524133983921	0.323880694317595	0.47453709109596975	0.9067327706530468	0.25726169354008216	0.46885754104208904	0.9902399793879717	0.2539849108233699	0.46917179508498436	0.9917102738048098	0.25068573398752314	0.48329142272257	0.9956800653617687	0.11393226433238048	0.44676444841733876	0.4027905461783341	0.09487079953293974	0.49038606302975707	0.6870323221006446	0.2079473588590239	0.40899882544099125	0.8954539331726113	0.28566122097227004	0.43057659742530113	0.9644097473473014	0.28564276235026	0.4340307385973435	0.9842444836320536	0.24190788813877298	0.47031827207308563	1.0020631588517224
140	2.3333333333333335	0.33586722935997093	0.5877135294511827	0.8274553154210723	0.3303067428279513	0.744942539582373	1.2806047687873177	0.31539787247606477	0.8484978879902049	1.6623530536057225	0.3046802797147082	0.7245228186842039	1.7248766287402841	0.36751519629512647	0.7502601681236818	1.727079590253052	0.2764807983322899	0.9532535061997628	1.7245298413094152	0.15040732866464956	0.5702661444401306	0.8329543623047783	0.11266230035876741	0.7316071039095295	1.2604795222455702	0.09353621588054596	0.8732557896877878	1.6590659673962949	0.13886945327562839	0.702166684219861	1.7114508408479319	0.08282328709323047	0.7225677730784943	1.7100580199118918	0.0868028788203123	0.952413539234347	1.7342946519949867	0.2628315725576234	0.4535626238423149	0.3334890546638233	0.28089500227177167	0.29113999052147294	0.11413027488708108	0.2869000037540807	0.28158870025769045	0.25554571877112714	0.3948994095299898	0.49940727431613385	0.40698557010873376	0.4258512121667285	0.5474763578432689	0.701488087290116	0.3238581297078769	0.4746620014003427	0.9067301377366971	0.2514944955763694	0.4807459816531015	0.9924941866924267	0.2539485102082095	0.4693522341669759	0.9918320312275098	0.25422522088258226	0.4838587632487421	0.9983708225108009	0.11969475006781252	0.43493632270578325	0.4031125651372255	0.09496773766895494	0.4902684673145728	0.6867757143614769	0.20403844451230227	0.4066205020520899	0.8952991256345002	0.2858184450200262	0.43035002881560913	0.9642139407588322	0.28568653222379414	0.4337715293442456	0.9840001887368273	0.2385364413169842	0.4683395258980758	1.0020549969826575
141	2.35	0.3399479481875258	0.5898164754653183	0.8273795918966425	0.3303033482225056	0.7448310758380111	1.2805075212295756	0.31299919068915505	0.8334346401128153	1.6575610014129456	0.30465045456716544	0.7243352447343083	1.7249128373171412	0.36739620854024746	0.7497541138737204	1.7270091668931469	0.2739579773820034	0.9374256152503986	1.7193775787161214	0.15046543445682004	0.5702372181362574	0.8329435194455743	0.1058435483276865	0.7463091495655549	1.264173518252306	0.09242922634748552	0.8741303955088509	1.6640173388179713	0.1389089956756229	0.7020761521422194	1.7114568306858609	0.08302141259642587	0.7222602231623935	1.7100099858895734	0.0974772670983861	0.9393036302496124	1.734010898069464	0.2628526345800089	0.4535874913570334	0.3334355648897165	0.2760639597145999	0.3020436861542842	0.11246498970495052	0.28693849435259794	0.28176682359662913	0.255476722303182	0.3949501740570216	0.49915044273970527	0.40699302324264974	0.4258191792995388	0.5476620823999983	0.7015215109969691	0.32386391468149106	0.4746755605851613	0.9067447700593947	0.25154505689004725	0.48060545077420236	0.9924195432306869	0.25397901860637007	0.46927254217410547	0.9917924487185228	0.25428483744622915	0.48379093635555415	0.9982347208427984	0.1197115164906011	0.43497765071741673	0.4031265730166169	0.09493917836337318	0.490308813406592	0.6869140419646682	0.20399738970487707	0.40654920340833944	0.8952328961571199	0.28559544225816563	0.43018622119209876	0.9642371106926798	0.2854865673801038	0.4336200369926335	0.9839888369103809	0.2419249475148376	0.4703296239940995	1.0019718885129751
142	2.3666666666666667	0.3399439011040269	0.589928711394611	0.8274245772361141	0.3275833233158644	0.7314404110369527	1.2775805110354685	0.31530689956702496	0.8487785817305227	1.6623156410088853	0.3046766697430824	0.7243550574583856	1.724895763310126	0.3672383078647375	0.7501534985008005	1.727184133034109	0.2763953694412241	0.953395470525029	1.7243968261683786	0.1504596401792658	0.5700901485444428	0.8329665389624133	0.1127487566668848	0.7316077726775263	1.2605607667262735	0.09358651905070824	0.8731967715056819	1.659072954097791	0.13991014906089042	0.7011582833668397	1.7073622063437	0.08286822929766646	0.7225942134702433	1.7100780209754858	0.09097612687344955	0.9565234314156421	1.7353118598359714	0.26285433317557283	0.45356795385604304	0.3333610379627918	0.2760463180423951	0.3021238987902059	0.11243872374291047	0.28679686641712765	0.28016058448540576	0.25247233838100125	0.39490308141538466	0.4993374114379899	0.4070061302950606	0.42589977263413553	0.5475847299586794	0.7015686975562883	0.3187813869519107	0.4877390446759964	0.9086094359271769	0.24838509655866906	0.48027032918889595	0.9925216236212765	0.2540203498348091	0.46938311880298517	0.991739040878194	0.25424978058561826	0.48387595883400986	0.9984230121906598	0.11976080565650808	0.43486080859077736	0.403172183271354	0.09522069768316563	0.48991112454156843	0.6910771680795599	0.19844514268542954	0.4189179812262177	0.8972089538320603	0.2802400075029616	0.44276425914842116	0.9666480632045115	0.2854558570286471	0.4339932064843988	0.9841113735448818	0.23858605430142735	0.46826879095562896	1.0016298713595069
